<?xml version="1.0" encoding="utf-8"?>
<!-- Generator: Adobe Illustrator 22.1.0, SVG Export Plug-In . SVG Version: 6.00 Build 0)  -->
<svg version="1.1"
	 id="Layer_1" xmlns:cc="http://creativecommons.org/ns#" xmlns:dc="http://purl.org/dc/elements/1.1/" xmlns:inkscape="http://www.inkscape.org/namespaces/inkscape" xmlns:rdf="http://www.w3.org/1999/02/22-rdf-syntax-ns#" xmlns:sodipodi="http://sodipodi.sourceforge.net/DTD/sodipodi-0.dtd" xmlns:svg="http://www.w3.org/2000/svg"
	 xmlns="http://www.w3.org/2000/svg" xmlns:xlink="http://www.w3.org/1999/xlink" x="0px" y="0px" viewBox="0 0 100 100"
	 style="enable-background:new 0 0 100 100;" xml:space="preserve">
<style type="text/css">
	.st0{fill:#CB3837;}
</style>
<path class="st0" d="M48.3,2.1c-0.4,0.1-0.9,0.2-1.2,0.5c-0.4,0.6-0.3,1.5,0.5,1.8c0.9,0.2,1.9,0.1,2.9,0.1c0.5,0,1-0.3,1.1-0.9
	c0.3-0.8-0.4-1.4-1.1-1.5L48.3,2.1L48.3,2.1z M55,2.5c-0.8,0.1-1.4,0.9-1,1.7c0.4,0.8,1.5,0.7,2.2,0.9c0.7,0.1,1.9,0.4,2.3-0.6
	c0.3-0.6,0-1.4-0.7-1.6C56.9,2.6,55.9,2.5,55,2.5z M43.3,2.6c-0.1,0-0.2,0-0.3,0c-0.9,0.1-1.8,0.2-2.6,0.5c-0.9,0.4-0.7,2,0.3,2.2
	c1,0,2-0.2,2.9-0.4c0.7-0.1,1-0.9,0.8-1.5C44.2,2.9,43.8,2.6,43.3,2.6L43.3,2.6z M62.1,3.9c-0.1,0-0.3,0-0.5,0C61,4.2,60.8,5,61,5.6
	c0.4,0.5,0.9,0.7,1.4,0.8C63.2,6.6,64,7,64.8,6.8c0.8-0.3,1-1.5,0.3-2C64.2,4.4,63.1,3.9,62.1,3.9L62.1,3.9z M36.4,4
	c-0.1,0-0.2,0-0.3,0c-0.8,0.1-1.5,0.4-2.2,0.7C33.6,4.9,33.2,5,33,5.3c-0.4,0.6,0,1.7,0.9,1.7C35,7,36.2,6.6,37.2,6
	C37.9,5.4,37.3,4,36.4,4L36.4,4z M49.5,5.7c-0.5,0-1.1,0.4-1.1,0.9c-0.1,3.1,0.1,6.2,0,9.3c-0.9-0.8-1.7-1.7-2.6-2.5
	c-0.4-0.4-1.1-0.2-1.5,0.2c-0.4,0.5-0.4,1.2,0.1,1.6c1.4,1.4,2.8,2.9,4.3,4.3c0.4,0.6,1.4,0.6,1.9,0c1.4-1.4,2.9-2.8,4.2-4.3
	c0.6-0.5,0.4-1.6-0.3-1.9c-0.5-0.3-1-0.1-1.4,0.3c-0.8,0.8-1.5,1.6-2.3,2.3c-0.1-2.8,0-5.6,0-8.4C50.6,7,50.8,6.4,50.3,6
	C50.1,5.8,49.8,5.7,49.5,5.7L49.5,5.7z M68.7,6.3C68.6,6.3,68.6,6.3,68.7,6.3c-0.6,0.1-1,0.5-1,1c-0.2,0.8,0.6,1.2,1.1,1.5
	c0.6,0.3,1.3,0.7,2,0.9c0.9,0.2,1.7-0.9,1.2-1.7c-0.5-0.6-1.3-0.9-1.9-1.2C69.6,6.6,69.1,6.3,68.7,6.3L68.7,6.3z M29.8,6.6
	c-0.2,0-0.3,0-0.5,0.1c-1,0.3-1.9,0.8-2.6,1.4c-0.7,0.7,0.2,2.1,1.1,1.8c1-0.4,2.1-0.9,2.9-1.5C31.2,7.7,30.6,6.6,29.8,6.6L29.8,6.6
	z M74.9,9.8c-0.9,0-1.5,1.2-0.9,1.8c0.7,0.7,1.5,1.2,2.4,1.7c0.7,0.4,1.7-0.1,1.7-0.9c0.2-0.8-0.6-1.2-1.2-1.6
	C76.3,10.5,75.7,9.8,74.9,9.8z M23.5,10.1c-0.1,0-0.3,0-0.4,0.1c-0.8,0.4-1.5,0.9-2.2,1.5c-0.7,0.4-0.6,1.6,0.1,2
	c0.5,0.3,1.2,0,1.6-0.3c0.7-0.6,1.7-0.9,2-1.9C24.8,10.8,24.2,10.1,23.5,10.1L23.5,10.1z M80.6,14.1c-0.1,0-0.3,0-0.4,0.1
	c-0.7,0.2-1,1.2-0.5,1.8c0.7,0.8,1.4,1.5,2.3,2.1c0.6,0.2,1.5-0.2,1.5-0.9c0.2-0.8-0.7-1.4-1.2-1.9C81.7,14.8,81.3,14.1,80.6,14.1
	L80.6,14.1z M18.1,14.6c-0.2,0-0.4,0-0.5,0.1c-0.9,0.6-1.7,1.4-2.4,2.3c-0.5,0.9,0.7,2,1.6,1.5c0.8-0.5,1.4-1.2,2-1.9
	c0.5-0.5,0.4-1.4-0.2-1.7C18.4,14.6,18.3,14.6,18.1,14.6L18.1,14.6z M85.4,19.3c-0.1,0-0.2,0-0.2,0c-0.8,0.1-1.1,1.1-0.7,1.8
	c0.6,0.8,1.2,1.7,2,2.3c0.7,0.3,1.5-0.1,1.6-0.8c0-0.8-0.6-1.4-1-2C86.6,20.1,86.2,19.3,85.4,19.3L85.4,19.3z M13.1,19.8
	c-0.1,0-0.3,0-0.4,0.1c-0.9,0.6-1.5,1.6-2.1,2.6c-0.5,1,0.9,2.1,1.7,1.4c0.8-0.7,1.4-1.7,1.9-2.6C14.5,20.4,13.8,19.8,13.1,19.8
	L13.1,19.8z M49.8,28c-0.7,0-1.4,0-2,0.1c-3.2,0.2-6.3,1.2-9.1,2.9c-5.9,3.4-9.9,9.6-10.6,16.3c-0.3,3.2,0,6.6,1.2,9.6
	c1.9,5.5,6.2,10.1,11.5,12.4c3.2,1.4,6.9,2.1,10.4,1.8c6.1-0.4,12-3.6,15.6-8.5c3.1-4.1,4.7-9.4,4.3-14.5c-0.4-5.9-3.4-11.6-8-15.3
	C59.3,29.7,54.6,28.1,49.8,28L49.8,28z M89.6,25.2c-0.2,0-0.3,0-0.5,0.1c-0.6,0.2-0.9,0.9-0.6,1.5c0.4,0.9,0.9,1.8,1.4,2.6
	c0.3,0.4,0.9,0.3,1.3,0.2c0.6-0.2,0.9-1,0.6-1.5c-0.4-0.9-0.9-1.7-1.4-2.5C90.1,25.2,89.9,25.2,89.6,25.2L89.6,25.2z M9.1,25.7
	c-0.8,0.1-1.1,0.9-1.4,1.4c-0.4,0.7-0.9,1.5-0.7,2.3c0.3,0.8,1.6,0.9,2,0.1c0.5-0.7,1-1.5,1.3-2.4C10.6,26.4,9.9,25.7,9.1,25.7z
	 M92.6,31.6c-0.1,0-0.2,0-0.3,0.1c-0.5,0.2-0.9,0.8-0.8,1.3c0.4,1,0.6,2,1.2,2.9c0.7,0.8,2.3-0.1,1.9-1.1c-0.2-0.8-0.5-1.7-0.9-2.4
	C93.5,31.8,93,31.5,92.6,31.6L92.6,31.6z M6.1,32.1c-0.1,0-0.2,0-0.3,0.1c-1,0.5-1.1,1.9-1.5,2.8c-0.3,0.6,0,1.4,0.7,1.6
	c0.5,0.1,1.1,0.1,1.3-0.4c0.4-0.7,0.6-1.4,0.8-2.1c0.1-0.4,0.3-0.9,0.1-1.3C7,32.4,6.6,32.1,6.1,32.1L6.1,32.1z M94.8,38.4
	c-0.2,0-0.3,0-0.5,0.1c-0.5,0.2-0.9,0.7-0.8,1.3c0.1,0.8,0.3,1.7,0.5,2.5c0.1,0.3,0.3,0.6,0.6,0.8c0.6,0.3,1.6-0.1,1.6-0.9
	c-0.1-1.1-0.2-2.2-0.6-3.2C95.5,38.5,95.1,38.4,94.8,38.4z M4.2,39C4.1,39,4,39,3.9,39c-0.8,0.1-0.9,1.2-1,1.8
	c-0.1,0.8-0.6,1.9,0.2,2.6c0.6,0.5,1.6,0.2,1.8-0.5c0.3-1,0.4-2.1,0.4-3.2C5.1,39.2,4.7,39,4.2,39z M84.7,42.3
	c-0.4,0-0.9,0.2-1.1,0.6c-1.4,1.5-2.9,2.8-4.2,4.3c-0.5,0.5-0.2,1.3,0.3,1.7c1.4,1.4,2.7,2.8,4.1,4.1c0.5,0.6,1.5,0.5,1.9-0.1
	c0.3-0.5,0.2-1.2-0.2-1.5c-0.8-0.8-1.5-1.5-2.3-2.3c3.1-0.1,6.2,0.1,9.3-0.1c0.7-0.1,1.2-1,0.9-1.7c-0.2-0.4-0.6-0.6-1-0.6
	c-3-0.1-6.1,0-9.1,0c0.8-0.8,1.6-1.6,2.4-2.4c0.5-0.5,0.3-1.5-0.4-1.8C84.9,42.3,84.8,42.3,84.7,42.3L84.7,42.3z M14.3,42.3
	c-0.5,0-0.9,0.3-1,0.8c-0.2,0.5,0.1,1,0.4,1.3c0.7,0.8,1.4,1.4,2.2,2.2c-3.1,0.1-6.2-0.1-9.2,0.1c-0.7,0.1-1.2,0.8-0.9,1.5
	c0.1,0.7,0.9,0.9,1.5,0.8c2.9,0,5.7,0,8.6,0c-0.8,0.9-1.8,1.7-2.5,2.7c-0.3,0.4,0,1,0.3,1.3c0.5,0.4,1.2,0.3,1.6-0.1
	c1.2-1.2,2.4-2.4,3.6-3.6c0.5-0.6,1.3-1.2,0.9-2.1c-0.4-0.6-1-1-1.4-1.5c-1.1-1-2.1-2.2-3.3-3.2C14.9,42.3,14.6,42.2,14.3,42.3
	L14.3,42.3z M95.6,45.4c-0.5,0-0.9,0.3-1,0.8c-0.2,1-0.1,2.1,0,3.2c0.2,0.8,1.2,1,1.8,0.6c0.3-0.2,0.4-0.6,0.5-0.9v-0.4
	c-0.1-0.9,0.1-1.8-0.3-2.7C96.4,45.6,96,45.4,95.6,45.4z M3.2,46c-0.4,0-0.8,0.2-1,0.6c-0.2,0.6-0.2,1.3-0.3,2v1.1
	c0.3,0.5,0.6,1.2,1.4,1c0.8,0,1-0.9,1-1.5c0-0.8,0.3-1.7-0.1-2.6C4.1,46.2,3.7,46,3.2,46z M3.4,52.1c-0.1,0-0.3,0-0.4,0.1
	c-0.5,0.1-0.8,0.7-0.7,1.2c0,0.9,0.1,1.9,0.4,2.8C3,57,4.5,56.9,4.7,55.9c0-1.1,0-2.2-0.3-3.2C4.3,52.3,3.8,52.1,3.4,52.1L3.4,52.1z
	 M95.6,52.5c-0.1,0-0.2,0-0.4,0.1c-0.9,0.3-0.8,1.5-1,2.2c0,0.7-0.3,1.6,0.4,2.1c0.6,0.5,1.6,0.2,1.8-0.5c0.3-1,0.3-2,0.3-3
	C96.6,52.8,96.1,52.5,95.6,52.5L95.6,52.5z M4.3,59.1c-0.7,0-1.2,0.8-1,1.4c0.2,0.9,0.4,1.8,0.8,2.7c0.4,0.7,1.6,0.7,2,0
	c0.3-0.5,0.1-1.1,0-1.7c-0.2-0.6-0.3-1.3-0.6-1.9C5.3,59.2,4.8,59.1,4.3,59.1C4.4,59.1,4.4,59.1,4.3,59.1L4.3,59.1z M94.4,59.5
	C94.4,59.5,94.3,59.5,94.4,59.5c-0.5,0.1-0.9,0.3-1,0.7c-0.3,0.9-0.6,1.8-0.7,2.7c-0.3,1.1,1.5,1.7,2.1,0.8c0.4-0.6,0.5-1.4,0.7-2.1
	c0-0.4,0.4-0.9,0.1-1.4C95.4,59.8,94.9,59.5,94.4,59.5L94.4,59.5z M6.6,65.8c-0.1,0-0.2,0-0.3,0.1c-0.6,0.2-1,0.9-0.8,1.4
	c0.2,0.8,0.6,1.5,0.9,2.2c0.2,0.3,0.4,0.7,0.8,0.8c0.6,0.3,1.4-0.3,1.5-0.9c0-0.9-0.5-1.7-0.9-2.5C7.6,66.4,7.2,65.8,6.6,65.8
	L6.6,65.8z M92.1,66.3c-0.1,0-0.2,0-0.3,0.1c-0.5,0.1-0.6,0.7-0.9,1.1c-0.3,0.8-0.8,1.5-0.9,2.4c0.1,0.4,0.5,0.9,1,0.9
	c0.9,0.2,1.3-0.8,1.6-1.5c0.3-0.7,0.8-1.4,0.6-2.3C93.2,66.5,92.7,66.3,92.1,66.3L92.1,66.3z M9.8,72.2c-0.1,0-0.2,0-0.3,0
	c-0.6,0.2-1,0.9-0.7,1.5c0.4,0.9,1,1.8,1.7,2.5c0.8,0.6,2.2-0.3,1.8-1.3c-0.4-0.9-1-1.7-1.5-2.5C10.4,72.3,10.1,72.2,9.8,72.2
	L9.8,72.2z M89,72.6c-0.1,0-0.2,0-0.3,0c-0.7,0.2-1,1-1.4,1.5c-0.3,0.6-1,1.2-0.7,2c0.2,0.8,1.4,1,1.9,0.4c0.7-0.8,1.3-1.7,1.7-2.8
	C90.2,73.2,89.6,72.6,89,72.6L89,72.6z M13.9,78c-0.1,0-0.2,0-0.4,0.1c-0.6,0.2-1,1-0.6,1.6c0.6,0.9,1.3,1.7,2.1,2.3
	c0.8,0.5,1.8-0.4,1.7-1.2c-0.4-0.8-1-1.4-1.6-2.1C14.8,78.3,14.4,78,13.9,78L13.9,78z M84.7,78.3c-0.1,0-0.2,0-0.3,0.1
	c-0.8,0.6-1.4,1.4-2.1,2.2c-0.4,0.3-0.3,0.8-0.2,1.2c0.2,0.7,1.3,0.9,1.8,0.4c0.7-0.7,1.4-1.4,1.9-2.2
	C86.2,79.2,85.5,78.3,84.7,78.3z M49.5,79.2c-0.4,0-0.7,0.2-0.9,0.4c-1.4,1.4-2.9,2.8-4.2,4.3c-0.6,0.5-0.4,1.7,0.4,1.9
	c0.4,0.2,0.9,0.1,1.2-0.3c0.8-0.8,1.5-1.6,2.4-2.3c0.1,2.8,0,5.6,0,8.4c0.1,0.5-0.1,1.1,0.3,1.5c0.6,0.6,1.9,0.3,2-0.6
	c0.1-3.1-0.1-6.2,0-9.3c1,0.8,1.7,1.8,2.7,2.5c0.6,0.4,1.5-0.1,1.6-0.8c0.1-0.6-0.4-1.2-0.8-1.6c-1.3-1.3-2.6-2.7-4-3.9
	C50.1,79.2,49.8,79.2,49.5,79.2L49.5,79.2z M18.9,83.1C18.8,83.1,18.8,83.1,18.9,83.1c-0.6,0.1-1.1,0.5-1.1,1
	c-0.1,0.9,0.7,1.3,1.2,1.8c0.6,0.5,1.2,1.3,2.1,1c0.7-0.2,1-1.1,0.6-1.7c-0.5-0.6-1.1-1-1.7-1.5C19.7,83.5,19.3,83.1,18.9,83.1
	L18.9,83.1z M79.8,83.4c-0.1,0-0.2,0-0.3,0.1c-1,0.4-1.7,1.2-2.5,1.9c-0.7,0.8,0.3,2.3,1.3,1.8c0.9-0.5,1.7-1.2,2.3-1.9
	C81.4,84.6,80.7,83.4,79.8,83.4L79.8,83.4z M24.5,87.4c-0.1,0-0.2,0-0.3,0c-0.8,0.1-1.2,1.4-0.5,1.9c0.7,0.6,1.5,1.1,2.3,1.4
	c0.3,0.2,0.7,0.3,1.1,0c0.7-0.3,0.9-1.4,0.3-1.9c-0.6-0.5-1.2-0.8-1.8-1.2C25.3,87.7,24.9,87.4,24.5,87.4L24.5,87.4z M74.1,87.6
	c-0.1,0-0.1,0-0.2,0c-0.8,0.3-1.6,0.8-2.3,1.2c-0.5,0.3-1,0.8-0.8,1.4c0.2,0.7,1,1.1,1.7,0.8c0.9-0.4,1.7-0.9,2.4-1.5
	C75.6,88.8,75,87.6,74.1,87.6L74.1,87.6z M30.7,90.8c-0.1,0-0.2,0-0.3,0c-0.8,0.2-1,1.4-0.4,1.9c0.9,0.5,1.9,1,2.9,1.2
	c0.8,0.2,1.6-0.8,1.3-1.5c-0.3-0.6-1-0.8-1.5-1C32,91.2,31.4,90.8,30.7,90.8L30.7,90.8z M67.8,90.9c-0.1,0-0.2,0-0.3,0
	c-0.7,0.2-1.4,0.5-2.1,0.8c-0.5,0.2-1.1,0.5-1.1,1.1c-0.2,0.8,0.7,1.6,1.5,1.2c1-0.3,1.9-0.6,2.8-1.2C69.3,92.2,68.7,91,67.8,90.9
	L67.8,90.9z M37.3,93.1c-0.7,0.1-1.2,1-0.9,1.7c0.3,0.7,1.2,0.6,1.8,0.9c0.7,0.1,1.5,0.6,2.2,0.1c0.7-0.4,0.7-1.7-0.1-2
	C39.4,93.5,38.4,93.2,37.3,93.1z M61.1,93.2c0,0-0.1,0-0.1,0c-0.9,0.1-1.9,0.4-2.8,0.6c-0.4,0.1-0.6,0.6-0.6,1
	c-0.1,0.7,0.6,1.3,1.3,1.2c0.9-0.2,1.9-0.3,2.8-0.7c0.4-0.1,0.5-0.5,0.5-0.9C62.3,93.8,61.7,93.2,61.1,93.2L61.1,93.2z M45.4,94.5
	c-0.4,0-0.9,0-1.3,0.1c-1,0.2-1,1.7-0.1,2.1c1,0.4,2.2,0.3,3.3,0.3c0.8-0.1,0.8-1,0.8-1.6C47.4,94.6,46.4,94.4,45.4,94.5z
	 M53.8,94.5c-0.1,0-0.3,0-0.4,0c-0.8,0.1-1.6,0-2.4,0.3c-0.8,0.4-0.6,1.8,0.2,2.1c0.8,0.1,1.6,0,2.4-0.1c0.5,0,1.1-0.1,1.4-0.6
	c0.3-0.4,0.3-1.1-0.1-1.4C54.6,94.5,54.2,94.5,53.8,94.5L53.8,94.5z"/>
</svg>
